<?xml version="1.0" encoding="UTF-8"?>
<svg viewBox="0 0 48 48" xmlns="http://www.w3.org/2000/svg" xmlns:xlink="http://www.w3.org/1999/xlink">
 <defs>
  <linearGradient id="b">
   <stop offset="0"/>
   <stop stop-opacity="0" offset="1"/>
  </linearGradient>
  <linearGradient id="a">
   <stop stop-color="#fff" offset="0"/>
   <stop stop-color="#d5d5d5" offset="1"/>
  </linearGradient>
  <linearGradient id="s" x2="0" y1="-150.7" y2="327.66" gradientUnits="userSpaceOnUse">
   <stop stop-opacity="0" offset="0"/>
   <stop offset=".5"/>
   <stop stop-opacity="0" offset="1"/>
  </linearGradient>
  <linearGradient id="y" x1="26.151" x2="27.5" y1="-5.7401" y2="13.352" gradientTransform="matrix(.98453 0 0 1.2036 .9719 -2.1232)" gradientUnits="userSpaceOnUse">
   <stop stop-color="#fff" offset="0"/>
   <stop stop-color="#d3d3d3" offset="1"/>
  </linearGradient>
  <linearGradient id="x" x2="0" y1="13.823" y2="16.878" gradientUnits="userSpaceOnUse">
   <stop stop-color="#a40000" offset="0"/>
   <stop stop-color="#ffc4c4" offset="1"/>
  </linearGradient>
  <linearGradient id="u" x2="0" y1="15.837" y2="21" gradientUnits="userSpaceOnUse">
   <stop stop-color="#598bcb" offset="0"/>
   <stop stop-color="#2f5c96" offset=".75676"/>
   <stop stop-color="#203e65" offset="1"/>
  </linearGradient>
  <linearGradient id="t" x1="21.678" x2="22.334" y1="19.97" y2="11.644" gradientUnits="userSpaceOnUse">
   <stop stop-color="#fff" offset="0"/>
   <stop stop-color="#fff" stop-opacity="0" offset="1"/>
  </linearGradient>
  <linearGradient id="aa" x1="7.3739" x2="7.5291" y1="27.377" y2="69.46" gradientTransform="matrix(3.5204 0 0 .34802 -3.0379 1.5443)" gradientUnits="userSpaceOnUse" xlink:href="#b"/>
  <linearGradient id="z" x1="27.5" x2="27.625" y1="14" y2="18.75" gradientTransform="matrix(1 0 0 .79999 0 -1.1999)" gradientUnits="userSpaceOnUse" xlink:href="#b"/>
  <linearGradient id="w" x2="0" y1="12" y2="6.6875" gradientUnits="userSpaceOnUse" xlink:href="#b"/>
  <linearGradient id="v" x2="0" y1="21" y2="32.25" gradientUnits="userSpaceOnUse" xlink:href="#b"/>
  <radialGradient id="c" cx="605.71" cy="486.65" r="117.14" gradientTransform="matrix(-2.7744 0 0 1.9697 112.76 -872.89)" gradientUnits="userSpaceOnUse" xlink:href="#b"/>
  <radialGradient id="d" cx="605.71" cy="486.65" r="117.14" gradientTransform="matrix(2.7744 0 0 1.9697 -1891.6 -872.89)" gradientUnits="userSpaceOnUse" xlink:href="#b"/>
  <radialGradient id="r" cx="9.5796" cy="33.588" r="2.5528" gradientTransform="matrix(3.1467 .069249 -.0604 2.7446 -17.829 -61.797)" gradientUnits="userSpaceOnUse" xlink:href="#a"/>
  <radialGradient id="q" cx="9.5796" cy="33.588" r="2.5528" gradientTransform="matrix(3.1467 .069249 -.0604 2.7446 -16.182 -61.797)" gradientUnits="userSpaceOnUse" xlink:href="#a"/>
  <radialGradient id="p" cx="9.5796" cy="33.588" r="2.5528" gradientTransform="matrix(3.1467 .069249 -.0604 2.7446 -14.333 -61.897)" gradientUnits="userSpaceOnUse" xlink:href="#a"/>
  <radialGradient id="o" cx="9.5796" cy="33.588" r="2.5528" gradientTransform="matrix(3.1467 .069249 -.0604 2.7446 -12.68 -61.032)" gradientUnits="userSpaceOnUse" xlink:href="#a"/>
  <radialGradient id="n" cx="9.5796" cy="33.588" r="2.5528" gradientTransform="matrix(3.1467 .069249 -.0604 2.7446 -10.785 -60.991)" gradientUnits="userSpaceOnUse" xlink:href="#a"/>
  <radialGradient id="m" cx="9.5796" cy="33.588" r="2.5528" gradientTransform="matrix(3.1467 .069249 -.0604 2.7446 -19.584 -61.752)" gradientUnits="userSpaceOnUse" xlink:href="#a"/>
  <radialGradient id="l" cx="9.5796" cy="33.588" r="2.5528" gradientTransform="matrix(3.1467 .069249 -.0604 2.7446 -8.3326 -61.897)" gradientUnits="userSpaceOnUse" xlink:href="#a"/>
  <radialGradient id="k" cx="9.5796" cy="33.588" r="2.5528" gradientTransform="matrix(3.1467 .069249 -.0604 2.7446 -6.3326 -61.897)" gradientUnits="userSpaceOnUse" xlink:href="#a"/>
  <radialGradient id="j" cx="9.5796" cy="33.588" r="2.5528" gradientTransform="matrix(3.1467 .069249 -.0604 2.7446 -4.3326 -61.897)" gradientUnits="userSpaceOnUse" xlink:href="#a"/>
  <radialGradient id="i" cx="9.5796" cy="33.588" r="2.5528" gradientTransform="matrix(3.1467 .069249 -.0604 2.7446 -2.3326 -61.897)" gradientUnits="userSpaceOnUse" xlink:href="#a"/>
  <radialGradient id="h" cx="9.5796" cy="33.588" r="2.5528" gradientTransform="matrix(3.1467 .069249 -.0604 2.7446 -.33256 -61.897)" gradientUnits="userSpaceOnUse" xlink:href="#a"/>
  <radialGradient id="g" cx="9.5796" cy="33.588" r="2.5528" gradientTransform="matrix(3.1467 .069249 -.0604 2.7446 1.6674 -61.897)" gradientUnits="userSpaceOnUse" xlink:href="#a"/>
  <radialGradient id="f" cx="9.5796" cy="33.588" r="2.5528" gradientTransform="matrix(3.1467 .069249 -.0604 2.7446 3.6674 -61.897)" gradientUnits="userSpaceOnUse" xlink:href="#a"/>
  <radialGradient id="e" cx="9.5796" cy="33.588" r="2.5528" gradientTransform="matrix(3.1467 .069249 -.0604 2.7446 5.6674 -61.897)" gradientUnits="userSpaceOnUse" xlink:href="#a"/>
 </defs>
 <g transform="matrix(.022624 0 0 .019662 44.395 41.981)">
  <path d="m-1559.3-150.7h1339.6v478.36h-1339.6z" fill="url(#s)" opacity=".40206"/>
  <path d="m-219.62-150.68v478.33c142.87 0.90045 345.4-107.17 345.4-239.2s-159.44-239.13-345.4-239.13z" fill="url(#d)" opacity=".40206"/>
  <path d="m-1559.3-150.68v478.33c-142.87 0.90045-345.4-107.17-345.4-239.2s159.44-239.13 345.4-239.13z" fill="url(#c)" opacity=".40206"/>
 </g>
 <path d="m4.75,21h38.5l-.875,11.25h-36.75l-.875-11.25z" fill="url(#v)" opacity=".3866"/>
 <path d="m4.0008 16.5c-0.04396-0.03545 1.7269 25.505 1.7274 25.513 0.16613 2.5507 1.5607 3.4829 3.1217 3.4867 0.05578 1.3e-4 29.284-0.00328 29.907-0.00594 2.6287-0.01122 3.2727-1.6346 3.4456-3.4083 0.01387-0.03497 1.7838-25.551 1.7977-25.586h-39.999z" fill="#babdb6" fill-rule="evenodd" opacity=".5" stroke="#555753"/>
 <path d="m43.458 20.713-36.25-0.02341c27.311 0.63733 32.677 3.6482 36.006 3.4943l0.24377-3.4709z" display="block" fill="url(#aa)" opacity=".23711"/>
 <g transform="translate(.088389 .088389)" fill-rule="evenodd" opacity=".12887" stroke="#000" stroke-width="1.3">
  <path d="m29.163 19.614s1.116 3.7214 0.35366 6.734-0.2479 7.8621-0.2479 7.8621l1.6151 0.42421s-0.76688-4.6057 0.04698-8.1095-0.35354-6.9098-0.35354-6.9098l-1.4143-9.1e-4z"/>
  <path d="m9.9124 19.759s1.116 3.7214 0.35366 6.734-0.2479 7.8621-0.2479 7.8621l1.4384-0.54807s-0.5901-3.6335 0.22376-7.1373-0.35354-6.9098-0.35354-6.9098l-1.4143-9.1e-4z"/>
  <path d="m11.667 19.714s1.116 3.7214 0.35366 6.734-3.403 5.3164-3.403 5.3164l1.2082 1.9657s2.7951-3.6016 3.609-7.1054-0.35354-6.9098-0.35354-6.9098l-1.4143-9.1e-4z"/>
  <path d="m21.163 19.614s1.116 3.7214 0.35366 6.734-0.2479 7.8621-0.2479 7.8621l1.6593 0.55679s-0.81107-4.7383 0.00279-8.2421-0.35354-6.9098-0.35354-6.9098l-1.4143-9.1e-4z"/>
  <path d="m35.163 19.614s1.116 3.7214 0.35366 6.734 1.0337 7.155 1.0337 7.155l1.5267-1.211s-1.9601-2.2634-1.1463-5.7672-0.35354-6.9098-0.35354-6.9098l-1.4143-9.1e-4z"/>
  <path d="m31.163 19.614s1.116 3.7214 0.35366 6.734-0.2479 7.8621-0.2479 7.8621l1.5267-0.06193s-0.67849-4.1196 0.13537-7.6234-0.35354-6.9098-0.35354-6.9098l-1.4143-9.1e-4z"/>
  <path d="m33.163 19.614s1.116 3.7214 0.35366 6.734-1.0434 7.6853-1.0434 7.6853l1.7919 0.42421s-0.14816-4.429 0.6657-7.9328-0.35354-6.9098-0.35354-6.9098l-1.4143-9.1e-4z"/>
  <path d="m27.163 19.614s1.116 3.7214 0.35366 6.734 0.5476 7.6411 0.5476 7.6411l1.6593-0.68065s-1.6066-3.2799-0.79271-6.7837-0.35354-6.9098-0.35354-6.9098l-1.4143-9.1e-4z"/>
  <path d="m25.163 19.614s1.116 3.7214 0.35366 6.734-1.3528 7.7295-1.3528 7.7295l1.5267 0.20323s0.42637-4.2522 1.2402-7.756-0.35354-6.9098-0.35354-6.9098l-1.4143-9.1e-4z"/>
  <path d="m23.163 19.614s1.116 3.7214 0.35366 6.734-0.2479 7.8621-0.2479 7.8621l1.4384-0.54807s-0.5901-3.6335 0.22376-7.1373-0.35354-6.9098-0.35354-6.9098l-1.4143-9.1e-4z"/>
  <path d="m13.314 19.714s1.116 3.7214 0.35366 6.734-0.2479 7.8621-0.2479 7.8621l1.5802 0.38826s-0.7319-4.5698 0.08196-8.0736-0.35354-6.9098-0.35354-6.9098l-1.4143-9.1e-4z"/>
  <path d="m19.418 20.52s0.19763 3.6095-0.35345 6.734c-0.53977 3.0603 2.2418 7.2425 2.2418 7.2425l1.4148-0.63234s-2.7944-2.6156-2.1624-6.7857c0.55767-3.6797 0.27365-6.5575 0.27365-6.5575l-1.4143-9.1e-4z"/>
  <path d="m15.163 19.614s1.116 3.7214 0.35366 6.734-0.2479 7.8621-0.2479 7.8621l1.4384-0.54807s-0.5901-3.6335 0.22376-7.1373-0.35354-6.9098-0.35354-6.9098l-1.4143-9.1e-4z"/>
  <path d="m16.816 20.48s1.116 3.7214 0.35366 6.734-2.4428 4.5909-2.4428 4.5909l1.238 1.1354s1.8052-2.0457 2.619-5.5495-0.35354-6.9098-0.35354-6.9098l-1.4143-9.1e-4z"/>
 </g>
 <path d="m29.163 19.614s1.116 3.7214 0.35366 6.734-0.2479 7.8621-0.2479 7.8621l1.6151 0.42421s-0.76688-4.6057 0.04698-8.1095-0.35354-6.9098-0.35354-6.9098l-1.4143-9.1e-4z" fill="url(#h)" fill-rule="evenodd"/>
 <path d="m9.9124 19.759s1.116 3.7214 0.35366 6.734-0.2479 7.8621-0.2479 7.8621l1.4384-0.54807s-0.5901-3.6335 0.22376-7.1373-0.35354-6.9098-0.35354-6.9098l-1.4143-9.1e-4z" fill="url(#m)" fill-rule="evenodd"/>
 <path d="m11.667 19.714s1.116 3.7214 0.35366 6.734-3.403 5.3164-3.403 5.3164l1.2082 1.9657s2.7951-3.6016 3.609-7.1054-0.35354-6.9098-0.35354-6.9098l-1.4143-9.1e-4z" fill="url(#r)" fill-rule="evenodd"/>
 <path d="m21.163 19.614s1.116 3.7214 0.35366 6.734-0.2479 7.8621-0.2479 7.8621l1.6593 0.55679s-0.81107-4.7383 0.00279-8.2421-0.35354-6.9098-0.35354-6.9098l-1.4143-9.1e-4z" fill="url(#l)" fill-rule="evenodd"/>
 <path d="m35.163 19.614s1.116 3.7214 0.35366 6.734 1.0337 7.155 1.0337 7.155l1.5267-1.211s-1.9601-2.2634-1.1463-5.7672-0.35354-6.9098-0.35354-6.9098l-1.4143-9.1e-4z" fill="url(#e)" fill-rule="evenodd"/>
 <path d="m31.163 19.614s1.116 3.7214 0.35366 6.734-0.2479 7.8621-0.2479 7.8621l1.5267-0.06193s-0.67849-4.1196 0.13537-7.6234-0.35354-6.9098-0.35354-6.9098l-1.4143-9.1e-4z" fill="url(#g)" fill-rule="evenodd"/>
 <path d="m33.163 19.614s1.116 3.7214 0.35366 6.734-1.0434 7.6853-1.0434 7.6853l1.7919 0.42421s-0.14816-4.429 0.6657-7.9328-0.35354-6.9098-0.35354-6.9098l-1.4143-9.1e-4z" fill="url(#f)" fill-rule="evenodd"/>
 <path d="m27.163 19.614s1.116 3.7214 0.35366 6.734 0.5476 7.6411 0.5476 7.6411l1.6593-0.68065s-1.6066-3.2799-0.79271-6.7837-0.35354-6.9098-0.35354-6.9098l-1.4143-9.1e-4z" fill="url(#i)" fill-rule="evenodd"/>
 <path d="m25.163 19.614s1.116 3.7214 0.35366 6.734-1.3528 7.7295-1.3528 7.7295l1.5267 0.20323s0.42637-4.2522 1.2402-7.756-0.35354-6.9098-0.35354-6.9098l-1.4143-9.1e-4z" fill="url(#j)" fill-rule="evenodd"/>
 <path d="m23.163 19.614s1.116 3.7214 0.35366 6.734-0.2479 7.8621-0.2479 7.8621l1.4384-0.54807s-0.5901-3.6335 0.22376-7.1373-0.35354-6.9098-0.35354-6.9098l-1.4143-9.1e-4z" fill="url(#k)" fill-rule="evenodd"/>
 <path d="m13.314 19.714s1.116 3.7214 0.35366 6.734-0.2479 7.8621-0.2479 7.8621l1.5802 0.38826s-0.7319-4.5698 0.08196-8.0736-0.35354-6.9098-0.35354-6.9098l-1.4143-9.1e-4z" fill="url(#q)" fill-rule="evenodd"/>
 <path d="m19.418 20.52s0.19763 3.6095-0.35345 6.734c-0.53977 3.0603 2.2418 7.2425 2.2418 7.2425l1.4148-0.63234s-2.7944-2.6156-2.1624-6.7857c0.55767-3.6797 0.27365-6.5575 0.27365-6.5575l-1.4143-9.1e-4z" fill="url(#n)" fill-rule="evenodd"/>
 <path d="m15.163 19.614s1.116 3.7214 0.35366 6.734-0.2479 7.8621-0.2479 7.8621l1.4384-0.54807s-0.5901-3.6335 0.22376-7.1373-0.35354-6.9098-0.35354-6.9098l-1.4143-9.1e-4z" fill="url(#p)" fill-rule="evenodd"/>
 <path d="m16.816 20.48s1.116 3.7214 0.35366 6.734-2.4428 4.5909-2.4428 4.5909l1.238 1.1354s1.8052-2.0457 2.619-5.5495-0.35354-6.9098-0.35354-6.9098l-1.4143-9.1e-4z" fill="url(#o)" fill-rule="evenodd"/>
 <path d="m5.4147 19.122c-0.05126-1.3e-4 0.83675 12.817 1.5423 21.806 0.182 2.3075 0.55192 3.2466 1.9854 3.2466 11.817 0 28.611 0.0861 29.182 0.084 2.7665-0.01016 2.7147-1.0375 2.9438-3.2202 0.08341-0.7946 1.5325-21.827 1.5187-21.827-9.9011 0-24.94-0.0574-37.173-0.08937z" fill="none" opacity=".62887" stroke="#fff"/>
 <path d="m7.1632 6.5688c-1.0668 0.00244-1.9596 0.02711-2.4459 1.0428-0.08452 0.17654-2.6609 7.3416-2.7848 7.6148-1.0604 2.3392-0.0825 5.2859 1.9656 5.2662 0.38951-0.00363 40.359 0.01827 40.979 0 1.7435-0.05049 1.9666-3.4627 1.216-4.9977-0.04252-0.08696-3.526-7.9809-3.6148-8.1208-0.41092-0.62444-1.3311-0.89811-2.0147-0.87248-0.13465 0.00518-33.167 0.06681-33.3 0.06711z" fill="url(#u)" fill-rule="evenodd" stroke="#204a87"/>
 <path d="m4.7922 20.902 2.4999 9e-5 0.76585 20.611-0.76254 3.0732c-0.60694-0.48646-0.87868-1.2243-1.0162-2.0628l-1.487-21.621z" fill="#555753" fill-rule="evenodd" opacity=".14948"/>
 <path d="m8.03357,41.61168-.7123,2.92889c.42286.22489.73575.31226 1.19128.46661l30.02588-.0287c.57892-.03962 1.13067-.0658 1.51434-.17159l-2.04578-3.43602-29.97342.24081z" fill="#eeeeec" fill-rule="evenodd" opacity=".42784"/>
 <path d="m38.007 41.371 2.0125 3.4449c0.6182-0.2632 1.3303-0.72381 1.6114-1.8539l1.5084-22.017-3.4472-0.00223-1.6851 20.428z" fill="#eeeeec" fill-rule="evenodd" opacity=".37113"/>
 <path d="m40.375,7.53125c-.06721.00026-.18758.0309-.3125.03125h-1.0625-3.78125l-11.40625.03125c-8.29469.01494-16.63697-4e-005-16.65625,0-.51956.00119-.89469.05867-1.09375.125s-.26714.05319-.40625.34375c.06817-.14239.02173-.02611 0,.03125s-.05492.145-.09375.25c-.07766.21-.18523.52625-.3125.875-.25453.69749-.60284,1.61006-.9375,2.53125s-.6457,1.84991-.90625,2.5625c-.13028.35629-.26022.65005-.34375.875s-.09934.27427-.1875.46875c-.41165.90809-.3939,1.99856-.125,2.75s.63762,1.0675 1.15625,1.0625h1.84375 4.625 13.9375 13.96875 4.65625 1.90625c.09573-.00277.10113.00599.21875-.15625s.24092-.52058.3125-.9375c.14315-.83384.00399-1.95071-.21875-2.40625-.06807-.13921-.03415-.09269-.0625-.15625s-.07502-.1375-.125-.25c-.09996-.22499-.23879-.56003-.40625-.9375-.33492-.75493-.774-1.74893-1.21875-2.75s-.87882-1.99021-1.21875-2.75c-.16996-.37989-.33483-.71116-.4375-.9375-.05134-.11317-.09709-.18998-.125-.25-.12293-.15424-.70375-.4197-1.0625-.40625h-.0625-.0625z" fill="none" opacity=".3866" stroke="url(#t)"/>
 <path d="m8 10-0.625 2h32l-0.78185-1.9246-30.593-0.07544z" fill="url(#z)" fill-rule="evenodd" opacity=".8299"/>
 <path d="m9.85355,1.5h27.31377c.19587,0 .35355.15768.35355.35355v9.64645h-28.02087v-9.64645c0-.19587.15768-.35355.35355-.35355z" fill="url(#y)" fill-rule="evenodd" stroke="#888a85"/>
 <path d="m10.5 10.523v-8.0226h26.004v8.1117" fill="none" opacity=".62887" stroke="#fff" stroke-linecap="square"/>
 <path transform="matrix(.81438 0 0 .79638 7.5837 3.2127)" d="m43 15a2.5 1.25 0 1 1 -5 0 2.5 1.25 0 1 1 5 0z" fill="#c00" fill-rule="evenodd" stroke="#a40000" stroke-linecap="square" stroke-width="1.2417"/>
 <path transform="matrix(.81438 0 0 .79638 7.5837 2.5498)" d="m43 15a2.5 1.25 0 1 1 -5 0 2.5 1.25 0 1 1 5 0z" fill="#ef2929" fill-rule="evenodd" stroke="url(#x)" stroke-linecap="square" stroke-width="1.2417"/>
 <path d="m9 6.6875h29v5.3125h-29z" fill="url(#w)" opacity=".2732"/>
 <path d="m12.5,4h22a.5,.5 0 0,1 .5.5 .5,.5 0 0,1 -.5.5h-22a.5,.5 0 0,1 -.5-.5 .5,.5 0 0,1 .5-.5" opacity=".13918"/>
 <path d="m12.5,6h14a.5,.5 0 0,1 .5.5 .5,.5 0 0,1 -.5.5h-14a.5,.5 0 0,1 -.5-.5 .5,.5 0 0,1 .5-.5" opacity=".13918"/>
 <path d="m12.5,8h18a.5,.5 0 0,1 .5.5 .5,.5 0 0,1 -.5.5h-18a.5,.5 0 0,1 -.5-.5 .5,.5 0 0,1 .5-.5" opacity=".13918"/>
</svg>
